<svg xmlns="http://www.w3.org/2000/svg" viewBox="0 0 729.43 729.43" width="729.43" height="729.43"><metadata><rdf:RDF xmlns:rdf="http://www.w3.org/1999/02/22-rdf-syntax-ns#" xmlns:dc="http://purl.org/dc/elements/1.1/"><rdf:Description><dc:creator>RealFaviconGenerator</dc:creator><dc:source>https://realfavicongenerator.net</dc:source></rdf:Description></rdf:RDF></metadata><defs>
    <style>
      .cls-1 {
        stroke: #231f20;
        stroke-miterlimit: 10;
        stroke-width: 58px;
      }

      .cls-1, .cls-2 {
        fill: #231f20;
      }

      .cls-3 {
        fill: #54bd86;
      }

      .cls-4 {
        fill: #feda00;
      }
    </style>
  </defs><g id="Layer_3" data-name="Layer 3">
    <rect class="cls-3" width="729.43" height="729.43"></rect>
  </g><g id="Layer_2" data-name="Layer 2">
    <polygon class="cls-2" points="165.67 365.53 364.67 553.25 552.75 365.53 372.33 181.57 165.67 365.53"></polygon>
  </g><g id="Layer_1" data-name="Layer 1">
    <path class="cls-1" d="M62.07,61.01c53.98-53.98,234.07,38.6,402.25,206.79,168.18,168.18,260.76,348.28,206.79,402.25-53.98,53.98-234.07-38.6-402.25-206.79C100.67,295.08,8.09,114.99,62.07,61.01ZM275.99,456.12c140.23,140.23,294.47,213.34,344.5,163.31,50.03-50.03-23.08-204.27-163.31-344.5C316.95,134.71,162.72,61.59,112.68,111.62c-50.03,50.03,23.08,204.27,163.31,344.5Z"></path>
    <path class="cls-1" d="M671.11,61.01c53.98,53.98-38.6,234.07-206.79,402.25-168.18,168.18-348.28,260.76-402.25,206.79-53.98-53.98,38.6-234.07,206.79-402.25C437.04,99.61,617.13,7.03,671.11,61.01ZM275.99,274.93c-140.23,140.23-213.34,294.47-163.31,344.5,50.03,50.03,204.27-23.08,344.5-163.31,140.23-140.23,213.34-294.47,163.31-344.5-50.03-50.03-204.27,23.08-344.5,163.31Z"></path>
    <circle class="cls-4" cx="366.59" cy="365.53" r="122.83" transform="translate(-151.1 366.28) rotate(-45)"></circle>
  </g></svg>